<svg width="512" height="512" viewBox="0 0 512 512" fill="none" xmlns="http://www.w3.org/2000/svg">
    <!-- Background Circle -->
    <circle cx="256" cy="256" r="240" fill="#24A1DE"/>
    
    <!-- Shield Shape Body -->
    <path d="M256 80L400 160V320C400 400 256 460 256 460C256 460 112 400 112 320V160L256 80Z" fill="#E1E1E1"/>
    
    <!-- The Lock -->
    <rect x="206" y="240" width="100" height="80" rx="10" fill="#F2C94C"/>
    <path d="M226 240V200C226 183.431 239.431 170 256 170C272.569 170 286 183.431 286 200V240" stroke="#F2C94C" stroke-width="20"/>
    <circle cx="256" cy="280" r="10" fill="#333333"/>
    
    <!-- Cute Eyes for the Squirrel/Bot -->
    <circle cx="206" cy="180" r="12" fill="#333333"/>
    <circle cx="306" cy="180" r="12" fill="#333333"/>
    
    <!-- Paper Plane Logo -->
    <path d="M340 120L180 180L240 210L340 120Z" fill="white" opacity="0.8"/>
    <path d="M340 120L240 210L260 280L340 120Z" fill="white"/>
</svg>
